<?xml version="1.0" standalone="no"?>
<!DOCTYPE svg PUBLIC "-//W3C//DTD SVG 20010904//EN"
 "http://www.w3.org/TR/2001/REC-SVG-20010904/DTD/svg10.dtd">
<svg version="1.0" xmlns="http://www.w3.org/2000/svg"
 width="2306.000000pt" height="2306.000000pt" viewBox="0 0 2306.000000 2306.000000"
 preserveAspectRatio="xMidYMid meet">
<metadata>
Created by potrace 1.14, written by Peter Selinger 2001-2017
</metadata>
<g transform="translate(0.000000,2306.000000) scale(0.100000,-0.100000)"
fill="#000000" stroke="none">
<path d="M1211 19718 c-50 -8 -80 -24 -108 -56 -43 -51 -40 54 -44 -1517 -2
-1049 12 -1469 56 -1685 3 -14 8 -41 11 -60 21 -136 103 -379 174 -520 130
-258 324 -472 570 -632 125 -82 224 -127 310 -142 14 -2 52 -11 85 -19 33 -8
74 -17 92 -21 l31 -5 -1 824 c-2 725 0 824 13 827 8 2 376 4 817 3 l802 0 7
40 c3 22 8 49 10 60 2 11 6 38 9 60 4 31 17 2257 16 2608 -1 38 -5 86 -11 108
-15 55 -63 106 -113 120 -47 13 -2652 20 -2726 7z"/>
<path d="M11172 16090 c-71 -24 -151 -110 -206 -219 -49 -95 -136 -346 -161
-462 -4 -20 -33 -142 -46 -194 -10 -43 -28 -132 -35 -180 -3 -16 -11 -66 -19
-110 -12 -69 -18 -111 -40 -265 -2 -14 -6 -43 -9 -65 -3 -22 -8 -62 -11 -90
-8 -76 -17 -148 -20 -165 -1 -8 -6 -49 -9 -90 -4 -41 -9 -91 -11 -110 -17
-163 -24 -247 -30 -335 -3 -44 -8 -109 -11 -145 -5 -73 -10 -138 -19 -285 -3
-55 -8 -131 -10 -170 -3 -38 -7 -119 -10 -180 -3 -60 -8 -141 -10 -180 -2 -38
-7 -151 -10 -250 -4 -99 -8 -214 -10 -255 -14 -276 -19 -729 -19 -1580 l0
-975 25 -55 c33 -70 72 -116 120 -140 36 -19 60 -20 367 -20 278 0 335 2 368
16 43 18 153 120 194 180 54 81 54 73 55 709 1 540 2 592 18 616 31 47 153 88
244 83 63 -4 97 -19 303 -134 262 -146 746 -402 1005 -532 33 -17 68 -34 78
-39 406 -211 960 -468 1047 -484 87 -17 189 3 259 51 90 61 188 179 249 300
55 109 91 269 87 385 -10 270 -305 494 -1010 769 -822 320 -1104 483 -1120
647 -8 86 33 142 274 378 613 598 735 727 906 960 165 224 323 540 371 740 51
214 63 484 29 665 -6 32 -22 109 -29 138 -74 320 -365 632 -761 818 -97 46
-274 110 -390 143 -136 38 -310 70 -470 86 -33 3 -71 8 -85 10 -14 3 -65 7
-115 11 -49 3 -108 9 -130 12 -22 3 -290 5 -595 6 -469 1 -562 -1 -598 -14z"/>
<path d="M8117 15933 c-1 0 -81 -4 -177 -7 -246 -8 -314 -15 -515 -51 -178
-32 -414 -121 -512 -193 -47 -35 -95 -100 -111 -152 -14 -43 -16 -92 -47 -965
-28 -790 -28 -3998 0 -4144 1 -9 6 -61 10 -116 4 -55 9 -113 11 -130 2 -16 6
-52 9 -80 3 -27 7 -66 9 -85 9 -87 82 -220 135 -247 31 -15 682 -16 761 -1
105 20 197 97 219 183 8 31 11 359 11 1084 l0 1041 38 38 c58 58 92 69 227 77
66 3 140 8 165 10 25 2 97 7 160 10 63 4 135 9 160 10 25 2 97 6 160 9 63 4
140 9 170 11 30 2 105 7 165 10 61 4 130 8 155 10 25 2 97 7 160 10 63 3 140
8 170 10 30 2 102 7 160 10 217 12 235 15 288 45 106 61 163 224 165 481 1 87
-7 181 -19 215 -37 107 -115 209 -209 274 -66 45 -205 101 -316 126 -13 3 -82
14 -154 24 -109 15 -178 18 -425 15 -162 -2 -317 -6 -345 -9 -27 -3 -79 -8
-115 -11 -36 -3 -81 -8 -100 -10 -89 -10 -129 -15 -176 -20 -28 -3 -61 -8 -75
-10 -13 -3 -58 -8 -99 -12 -75 -6 -76 -5 -88 22 -18 39 -24 105 -14 140 9 32
90 83 287 183 50 25 125 64 168 88 42 23 77 40 77 37 0 -3 6 -1 13 5 6 5 89
49 182 97 223 115 351 183 397 212 21 13 40 23 43 23 9 0 213 137 280 188 283
214 489 465 572 697 85 236 61 560 -51 691 -33 38 -103 81 -148 89 -13 3 -34
7 -48 10 -14 2 -74 7 -135 10 -60 4 -141 8 -180 11 -350 21 -1456 49 -1468 37z"/>
<path d="M3385 15736 c-85 -37 -138 -148 -647 -1351 -45 -104 -91 -213 -104
-242 -13 -28 -24 -55 -24 -58 0 -3 -9 -25 -19 -48 -34 -75 -137 -328 -210
-517 -40 -102 -76 -194 -81 -205 -11 -24 -121 -321 -192 -520 -27 -77 -101
-291 -163 -475 -62 -184 -140 -411 -173 -505 -33 -93 -90 -255 -125 -360 -65
-190 -100 -295 -263 -795 l-87 -265 0 -236 c1 -204 3 -241 18 -273 49 -104
222 -148 550 -140 266 6 329 27 447 152 115 121 185 252 339 637 133 334 203
475 298 600 144 192 358 326 561 353 30 4 114 7 185 6 103 0 146 -5 210 -23
299 -84 511 -339 689 -831 123 -338 249 -621 313 -698 52 -63 72 -80 128 -110
46 -25 59 -27 170 -27 109 0 165 4 265 21 59 9 202 61 262 94 32 17 83 57 115
88 78 77 95 125 93 269 -2 211 -5 229 -90 598 -23 99 -43 189 -44 200 -2 11
-11 50 -19 86 -9 37 -18 78 -21 90 -2 13 -11 56 -20 94 -8 39 -17 82 -20 95
-18 98 -108 511 -126 580 -5 19 -12 51 -15 70 -3 19 -14 71 -24 115 -10 44
-21 96 -25 115 -6 34 -12 62 -20 98 -11 47 -25 110 -29 132 -3 14 -8 36 -11
50 -3 14 -8 36 -10 50 -3 14 -28 133 -56 265 -42 199 -110 529 -126 610 -2 11
-24 119 -49 240 -25 121 -48 234 -51 250 -2 17 -20 107 -39 200 -19 94 -36
181 -39 195 -2 14 -16 84 -30 155 -37 183 -36 177 -41 210 -3 17 -12 64 -20
105 -9 41 -17 84 -19 95 -2 11 -22 115 -45 230 -22 116 -43 226 -46 245 -27
156 -72 230 -170 276 l-50 24 -635 0 c-505 -1 -641 -3 -665 -14z"/>
<path d="M16410 15566 c-152 -29 -278 -79 -420 -168 -91 -57 -95 -61 -205
-155 -198 -170 -397 -446 -558 -773 -192 -392 -335 -849 -407 -1295 -43 -269
-57 -591 -35 -805 20 -204 81 -479 134 -615 5 -11 14 -38 21 -60 37 -113 150
-340 240 -480 35 -55 67 -102 70 -105 3 -3 30 -37 62 -76 273 -342 684 -583
1078 -631 125 -15 548 -6 581 13 3 1 28 6 55 10 27 3 57 10 67 15 9 6 17 8 17
5 0 -6 174 47 240 74 297 118 642 379 879 665 79 94 161 203 161 211 0 4 15
27 34 53 18 25 41 60 50 76 9 17 25 44 35 60 109 181 229 463 302 710 34 113
32 106 54 200 22 90 21 86 50 250 11 64 19 131 32 270 9 99 8 379 -1 460 -4
33 -9 76 -11 95 -15 136 -80 388 -132 506 -9 21 -17 41 -18 44 -15 51 -119
251 -187 359 -310 493 -791 853 -1358 1016 -63 18 -131 36 -150 39 -19 3 -78
13 -130 22 -122 20 -460 26 -550 10z"/>
<path d="M20283 12963 c-5 -1 -94 -3 -200 -5 -223 -3 -219 -2 -276 -117 -29
-59 -32 -74 -34 -170 -5 -238 -3 -2478 2 -2506 9 -45 43 -93 78 -112 29 -16
97 -18 782 -19 413 0 755 -2 761 -2 9 -2 12 -208 11 -792 0 -435 2 -793 6
-796 3 -3 36 -8 74 -11 153 -12 345 56 490 175 292 238 495 524 607 854 40
116 82 304 91 408 22 245 29 1069 22 2561 l-3 475 -23 32 -23 32 -1179 -2
c-648 -2 -1182 -4 -1186 -5z"/>
<path d="M5433 9512 c-65 -19 -147 -105 -200 -208 -40 -76 -136 -347 -148
-416 -3 -17 -8 -34 -10 -38 -2 -3 -6 -17 -9 -31 -2 -13 -16 -73 -30 -134 -13
-60 -27 -128 -31 -150 -3 -22 -7 -47 -10 -55 -6 -20 -47 -286 -60 -395 -4 -27
-8 -61 -10 -75 -2 -14 -7 -52 -11 -85 -3 -33 -8 -67 -9 -76 -2 -9 -6 -52 -10
-95 -4 -43 -8 -90 -10 -104 -3 -14 -7 -54 -10 -90 -5 -63 -9 -113 -20 -235 -2
-33 -7 -98 -10 -145 -3 -47 -8 -114 -10 -150 -3 -36 -7 -103 -10 -150 -3 -47
-7 -114 -9 -150 -9 -120 -19 -331 -31 -642 -3 -92 -8 -212 -10 -265 -16 -402
-23 -1469 -13 -2113 3 -263 5 -277 27 -321 29 -59 75 -108 117 -125 48 -20
650 -20 697 -1 58 25 174 143 208 213 l32 64 1 581 1 581 27 23 c39 33 151 68
216 66 60 -1 98 -18 356 -160 77 -43 186 -102 240 -131 55 -29 116 -61 135
-72 20 -12 101 -55 181 -96 80 -42 199 -104 265 -139 66 -35 134 -69 150 -77
17 -8 167 -81 335 -164 258 -127 414 -199 575 -267 80 -34 105 -40 175 -40 65
0 84 4 140 32 221 109 404 484 358 732 -21 117 -136 256 -302 365 -85 56 -305
173 -396 211 -25 10 -64 27 -88 37 -24 11 -107 44 -185 74 -78 30 -151 59
-162 64 -11 4 -45 18 -75 30 -30 12 -68 28 -85 35 -16 7 -75 32 -130 55 -256
107 -486 238 -555 316 -61 70 -77 132 -49 194 29 65 75 117 262 300 278 271
601 592 643 640 173 195 339 439 439 645 135 275 173 432 173 715 1 144 -3
207 -18 284 -49 248 -129 402 -302 578 -71 72 -236 208 -252 208 -3 0 -22 11
-42 25 -157 107 -546 240 -821 281 -21 3 -48 7 -61 9 -13 2 -53 7 -90 11 -37
3 -76 8 -86 10 -10 2 -58 6 -105 10 -47 3 -102 8 -121 11 -19 3 -277 6 -573 7
-422 1 -549 -2 -584 -12z"/>
<path d="M12279 9356 c-2 -2 -53 -7 -114 -11 -60 -3 -126 -8 -145 -10 -19 -1
-69 -6 -110 -9 -41 -4 -93 -9 -115 -11 -37 -5 -77 -9 -210 -20 -55 -5 -129
-13 -190 -21 -22 -3 -56 -7 -75 -9 -19 -2 -51 -6 -70 -9 -38 -6 -174 -25 -230
-32 -85 -11 -110 -15 -200 -30 -52 -8 -153 -26 -224 -40 -72 -14 -146 -27
-165 -30 -20 -3 -39 -8 -42 -10 -3 -2 -21 -6 -40 -9 -19 -3 -52 -11 -74 -16
-22 -6 -47 -13 -55 -14 -229 -49 -607 -169 -735 -234 -143 -72 -211 -140 -233
-231 -9 -37 -7 -4209 1 -4295 3 -27 8 -81 12 -120 4 -38 10 -88 15 -110 5 -22
12 -56 15 -75 19 -116 80 -274 139 -362 52 -79 113 -132 182 -158 54 -21 69
-22 194 -16 74 4 149 9 165 11 17 2 55 6 85 10 30 3 66 7 80 10 14 2 52 7 85
10 33 3 67 8 75 10 8 2 40 6 71 10 31 3 66 7 76 9 11 3 44 7 74 11 30 3 61 8
69 10 8 2 40 7 70 10 30 4 73 10 95 15 22 5 65 11 95 15 30 3 62 8 70 10 8 2
29 6 45 9 97 16 284 47 308 51 15 3 39 7 55 10 15 3 54 9 87 15 33 5 71 12 85
15 26 5 52 10 108 20 69 12 379 75 412 85 19 5 78 19 130 31 124 27 108 24
240 58 266 69 425 118 576 177 325 128 353 171 348 529 -2 160 -7 215 -23 276
-40 156 -94 225 -197 255 -49 14 -93 16 -303 11 -135 -3 -257 -8 -271 -10 -14
-3 -50 -8 -80 -11 -59 -7 -102 -13 -136 -21 -12 -3 -39 -7 -60 -11 -21 -3 -66
-12 -99 -19 -33 -8 -71 -16 -85 -19 -14 -3 -36 -7 -50 -10 -14 -3 -36 -8 -50
-11 -14 -3 -35 -7 -48 -10 -13 -2 -31 -6 -40 -9 -9 -3 -30 -8 -47 -11 -16 -3
-100 -21 -185 -40 -189 -43 -180 -41 -259 -61 -36 -9 -72 -17 -80 -19 -9 -2
-90 -19 -181 -38 -155 -34 -200 -43 -260 -52 -38 -5 -112 -16 -140 -20 -70
-10 -157 -16 -272 -20 -155 -5 -163 0 -155 81 10 97 67 188 209 334 188 195
380 341 978 745 113 76 250 171 305 210 99 69 320 220 352 240 9 6 24 15 32
22 9 6 66 48 126 93 149 111 215 167 315 270 106 108 134 160 137 254 2 68
-23 171 -50 206 -26 34 -85 69 -132 80 -45 10 -335 14 -465 5 -160 -10 -260
-17 -290 -20 -19 -2 -69 -7 -110 -10 -41 -3 -91 -8 -110 -10 -19 -2 -62 -7
-95 -10 -33 -3 -71 -8 -85 -10 -14 -3 -52 -7 -85 -10 -33 -4 -78 -8 -100 -11
-22 -2 -69 -7 -105 -9 -36 -3 -81 -7 -100 -10 -19 -2 -75 -7 -125 -11 -49 -3
-101 -8 -115 -9 -45 -6 -302 -18 -402 -19 -93 -1 -97 0 -92 19 55 178 355 406
939 715 55 29 123 65 150 80 74 41 186 100 310 165 141 74 267 140 330 175 28
15 102 55 165 89 63 34 124 67 135 74 352 216 514 347 569 461 31 65 36 97 25
171 -18 118 -54 179 -125 214 -44 23 -59 24 -274 27 -125 2 -229 2 -231 0z"/>
<path d="M14917 9354 c-1 -1 -67 -5 -147 -8 -177 -7 -268 -15 -353 -32 -12 -2
-38 -6 -58 -9 -20 -3 -50 -10 -68 -15 -17 -5 -34 -9 -36 -9 -52 -5 -214 -61
-310 -106 -106 -51 -167 -105 -201 -179 -25 -56 -28 -82 -39 -396 -6 -185 -15
-432 -20 -590 -26 -724 -26 -3676 -1 -3935 3 -22 7 -78 11 -125 6 -89 20 -225
31 -298 8 -60 66 -173 104 -206 l33 -27 371 3 c363 3 372 4 417 26 59 29 114
82 135 129 16 35 17 127 18 1054 1 863 4 1019 16 1034 21 25 97 76 122 80 21
4 103 10 288 20 52 3 122 7 155 10 33 3 110 7 170 10 61 3 130 8 155 10 25 2
97 6 160 10 63 4 140 8 170 10 30 2 98 6 150 9 88 6 138 9 325 21 39 3 120 7
180 10 132 7 193 25 239 70 87 84 121 222 119 477 -2 240 -121 404 -362 497
-82 32 -92 34 -211 57 -140 26 -185 29 -470 28 -257 0 -375 -5 -480 -19 -19
-2 -64 -7 -100 -10 -36 -4 -117 -13 -180 -21 -63 -8 -139 -17 -168 -21 l-52
-5 -17 38 c-35 83 -15 152 54 187 26 13 64 33 83 45 34 20 105 57 460 240 255
131 366 190 480 255 105 60 288 180 325 214 11 10 38 31 60 48 59 43 234 221
286 290 107 142 155 231 192 355 91 302 24 615 -148 691 -49 22 -80 28 -170
34 -38 3 -104 7 -145 10 -70 5 -211 12 -410 20 -277 12 -1155 26 -1163 19z"/>
<path d="M18617 9354 c-1 -1 -85 -4 -187 -7 -102 -4 -196 -9 -210 -11 -14 -2
-52 -7 -85 -11 -32 -4 -62 -8 -65 -10 -3 -1 -26 -6 -52 -9 -53 -7 -232 -51
-263 -65 -11 -5 -42 -17 -70 -26 -75 -26 -176 -81 -216 -117 -77 -71 -100
-130 -104 -268 -2 -47 -6 -150 -9 -230 -3 -80 -8 -219 -11 -310 -4 -91 -8
-210 -10 -265 -25 -677 -26 -3826 -1 -3962 2 -10 7 -61 11 -113 11 -134 12
-148 20 -210 4 -30 9 -71 11 -90 6 -51 69 -174 105 -205 l32 -26 371 3 c366 3
372 3 419 26 60 30 111 80 133 129 16 35 17 124 18 1055 l1 1017 25 26 c48 51
106 72 220 79 198 12 265 17 340 21 41 2 107 6 145 9 39 3 120 8 180 12 61 3
130 8 155 9 25 2 97 6 160 10 63 3 142 8 175 10 33 2 101 7 150 10 466 27 488
29 540 60 53 30 99 99 126 184 23 77 30 131 33 266 5 193 -35 308 -143 415
-36 36 -93 80 -126 97 -113 59 -272 103 -440 120 -146 15 -713 7 -812 -11 -10
-2 -54 -7 -97 -11 -43 -4 -86 -8 -95 -10 -9 -1 -47 -6 -86 -10 -38 -4 -78 -9
-88 -11 -11 -2 -46 -6 -78 -10 l-59 -7 -16 39 c-31 75 -16 155 33 176 16 7 44
22 63 33 47 29 217 118 505 265 331 170 509 268 641 355 534 353 797 784 728
1192 -41 239 -129 326 -346 339 -40 2 -104 6 -143 9 -73 4 -282 15 -420 20
-283 12 -1100 26 -1108 19z"/>
<path d="M4118 9124 c-2 -1 -61 -5 -133 -9 -71 -3 -164 -8 -205 -10 -41 -2
-131 -7 -200 -10 -69 -3 -159 -8 -200 -10 -69 -4 -135 -7 -400 -20 -52 -3
-140 -7 -195 -10 -55 -3 -149 -7 -210 -10 -60 -2 -159 -7 -220 -10 -60 -3
-148 -8 -195 -10 -94 -4 -297 -14 -405 -20 -102 -6 -265 -14 -390 -20 -60 -3
-146 -7 -190 -10 -44 -2 -127 -7 -185 -10 -57 -3 -133 -12 -168 -20 -145 -34
-273 -119 -317 -210 -17 -37 -19 -66 -20 -370 -1 -181 3 -341 7 -355 14 -39
57 -79 123 -113 l60 -32 545 -5 c533 -5 546 -6 604 -28 75 -28 143 -68 155
-90 5 -10 9 -817 9 -1967 0 -1237 4 -1959 10 -1975 30 -76 134 -130 287 -147
102 -12 413 -1 516 17 146 26 246 71 281 128 l21 34 0 1916 c0 1574 2 1927 13
1974 33 141 128 217 311 250 45 8 214 12 503 13 239 1 449 5 465 9 159 37 205
58 263 117 56 58 64 103 66 389 1 235 -14 343 -66 444 -29 57 -102 131 -156
158 -43 21 -60 23 -214 24 -92 1 -169 0 -170 -2z"/>
</g>
</svg>
